<svg width="351" height="51" viewBox="0 0 351 51" fill="none" xmlns="http://www.w3.org/2000/svg">
<g clip-path="url(#clip0_1994_2482)">
<path d="M42.4101 12.2798C41.3401 10.4598 40.0401 8.77977 38.5301 7.26977C37.0301 5.76977 35.3301 4.45976 33.5001 3.38976C31.6701 2.31976 29.6801 1.47976 27.5901 0.899765C25.4901 0.309765 23.2801 0.00976562 21.0101 0.00976562H3.94008C3.06008 0.00976562 2.26007 0.319765 1.62007 0.909765C0.940071 1.53977 0.580078 2.37977 0.580078 3.33977V46.6798C0.580078 47.5998 0.930073 48.4298 1.59007 49.0598C2.23007 49.6798 3.05008 50.0098 3.94008 50.0098H21.0101C24.4001 50.0098 27.6301 49.3598 30.6401 48.0898C33.6301 46.8198 36.2701 45.0598 38.5001 42.8498C40.7301 40.6498 42.5201 38.0298 43.8101 35.0798C45.1201 32.1098 45.7801 28.0798 45.7801 24.7098C45.7801 22.4698 45.4801 20.2698 44.8901 18.1698C44.3201 16.0898 43.4801 14.1098 42.4101 12.2798ZM21.0201 43.3198H7.28008V6.70976H21.0601C22.8201 6.70976 24.5001 6.94976 26.0601 7.41976C27.6301 7.88976 29.1101 8.54977 30.4401 9.37977C31.7701 10.2098 32.9801 11.1998 34.0401 12.3398C35.1101 13.4898 36.0401 14.7498 36.8001 16.0898C37.5501 17.4198 38.1401 18.8498 38.5401 20.3198C38.9401 21.7898 39.1401 23.2798 39.1401 24.7498C39.1401 26.9698 38.6901 29.9898 37.8201 32.1098C36.9401 34.2398 35.6801 36.1598 34.0901 37.8198C32.5001 39.4698 30.5701 40.8198 28.3401 41.8198C26.1301 42.8198 23.6701 43.3198 21.0201 43.3198Z" fill="white"/>
<path d="M74.53 2.42967C73.99 1.13967 72.88 0.409668 71.48 0.409668C70.04 0.409668 68.91 1.14967 68.37 2.41967L50.08 44.8797C49.7 45.7097 49.66 46.5897 49.96 47.4197C50.27 48.2597 50.87 48.9097 51.71 49.3097L51.82 49.3597C52.67 49.6897 53.55 49.6897 54.36 49.3697C55.19 49.0297 55.81 48.3997 56.16 47.5797L60.21 38.1597H82.73L86.75 47.6097L86.78 47.6697C87.17 48.4997 87.83 49.1097 88.69 49.4297C89.08 49.5697 89.48 49.6497 89.87 49.6497C90.36 49.6497 90.84 49.5397 91.31 49.3197L91.35 49.2997C92.17 48.8897 92.74 48.2197 93.01 47.3697C93.25 46.5897 93.21 45.7597 92.89 44.9797L74.53 2.42967ZM63 31.4497L71.48 11.6897L79.91 31.4497H63Z" fill="white"/>
<path d="M133.89 27.8997C134.96 26.5497 135.8 25.0097 136.39 23.3297C136.98 21.6497 137.27 19.8197 137.27 17.8897C137.27 15.4097 136.79 13.0797 135.83 10.9397C134.88 8.82969 133.58 6.95969 131.96 5.40969C130.34 3.85969 128.42 2.61969 126.24 1.74969C124.06 0.869687 121.72 0.429688 119.26 0.429688H106.12C105.24 0.429688 104.44 0.739687 103.8 1.32969C103.12 1.95969 102.76 2.79969 102.76 3.75969V46.2797C102.76 47.1997 103.11 48.0297 103.77 48.6597C104.41 49.2797 105.23 49.6097 106.12 49.6097C107.03 49.6097 107.84 49.2697 108.48 48.6397C109.12 47.9997 109.45 47.1897 109.45 46.2797V34.6197H119.15C119.59 34.6197 120.03 34.6097 120.44 34.5797C120.52 34.5797 120.6 34.5697 120.68 34.5597L131.26 48.4597L131.35 48.5497C131.93 49.1297 132.65 49.4697 133.43 49.5497C134.25 49.6297 135.05 49.3897 135.74 48.8497C136.5 48.2897 136.95 47.4797 137.05 46.5097C137.15 45.5597 136.84 44.6497 136.17 43.9297L127.75 32.7497C128.58 32.3497 129.38 31.8997 130.13 31.3797C131.57 30.4097 132.83 29.2397 133.89 27.8997ZM127.45 25.0097C126.46 25.9197 125.26 26.6397 123.87 27.1597C122.47 27.6897 120.89 27.9497 119.2 27.9497H109.46V7.11969H119.34C120.99 7.11969 122.51 7.40969 123.87 7.98969C125.24 8.56969 126.44 9.36969 127.43 10.3697C128.42 11.3597 129.2 12.5197 129.75 13.8197C130.29 15.1097 130.57 16.4797 130.57 17.8897C130.57 19.2897 130.29 20.6097 129.75 21.8197C129.21 23.0397 128.43 24.1097 127.45 25.0097Z" fill="white"/>
<path d="M204.09 0.709817L204.01 0.669818C203.14 0.309818 202.25 0.319818 201.43 0.689819C200.67 1.02982 200.08 1.62982 199.7 2.41982L184.34 37.9598L178.11 23.5498L186.09 5.08982C186.48 4.23982 186.51 3.33982 186.17 2.49982C185.85 1.69982 185.24 1.07982 184.43 0.699819L184.35 0.659818C183.49 0.309818 182.6 0.309818 181.77 0.679818C181.01 1.00982 180.4 1.58982 180.03 2.33982L180.01 2.37982L164.59 37.9498L149.32 2.45982L149.29 2.39982C148.91 1.59982 148.31 0.999818 147.53 0.659818C146.7 0.299818 145.81 0.289818 144.95 0.649818L144.87 0.689819C144.08 1.05982 143.48 1.65982 143.14 2.40982C142.76 3.23982 142.78 4.17982 143.17 5.03982L161.5 47.5398L161.51 47.5698C161.74 48.0898 162.07 48.5198 162.48 48.8498C162.88 49.1798 163.35 49.3998 163.85 49.5098C164.12 49.5798 164.39 49.6098 164.66 49.6098C165.13 49.6098 165.59 49.5098 166.04 49.3198C166.83 48.9798 167.43 48.3598 167.76 47.5398L174.48 31.9598L181.18 47.5098C181.44 48.1698 181.88 48.6998 182.45 49.0498C182.93 49.3498 183.45 49.5198 184 49.5798C184.71 49.6698 185.42 49.5198 186.06 49.1498C186.7 48.7798 187.2 48.2198 187.49 47.5398L205.82 5.03982C206.22 4.15982 206.22 3.20982 205.81 2.35982C205.46 1.64982 204.87 1.06982 204.09 0.709817Z" fill="white"/>
<path d="M256.47 12.3995C255.4 10.5495 254.08 8.83953 252.55 7.31953C251.02 5.80953 249.32 4.49953 247.49 3.42953C245.66 2.35953 243.65 1.51953 241.53 0.919531C239.4 0.319531 237.15 0.0195312 234.86 0.0195312C231.4 0.0195312 228.11 0.67953 225.09 1.97953C222.08 3.27953 219.41 5.07953 217.17 7.32953C214.93 9.57953 213.14 12.2495 211.86 15.2595C210.57 18.2795 209.92 21.5595 209.92 24.9895C209.92 28.4195 210.57 31.6995 211.86 34.7395C213.14 37.7595 214.93 40.4395 217.17 42.6995C219.41 44.9495 222.08 46.7595 225.09 48.0495C228.12 49.3495 231.4 50.0095 234.86 50.0095C237.15 50.0095 239.39 49.7095 241.53 49.1095C243.65 48.5095 245.65 47.6695 247.49 46.5995C249.33 45.5295 251.03 44.2095 252.56 42.6895C254.09 41.1595 255.4 39.4595 256.47 37.6195C257.54 35.7895 258.38 33.7795 258.98 31.6595C259.58 29.5295 259.88 27.2795 259.88 24.9895C259.88 22.6995 259.58 20.4595 258.98 18.3395C258.38 16.2395 257.53 14.2395 256.47 12.3995ZM234.86 43.3195C233.18 43.3195 231.53 43.0995 229.98 42.6695C228.42 42.2395 226.95 41.6195 225.61 40.8295C224.27 40.0295 223.03 39.0695 221.93 37.9595C220.83 36.8495 219.88 35.6095 219.09 34.2595C218.31 32.9195 217.69 31.4495 217.26 29.8795C216.83 28.3195 216.61 26.6795 216.61 24.9995C216.61 22.4795 217.09 20.0795 218.03 17.8695C218.98 15.6495 220.29 13.6795 221.93 12.0395C223.56 10.3995 225.52 9.07953 227.74 8.10953C229.95 7.15953 232.34 6.66953 234.86 6.66953C237.38 6.66953 239.77 7.14953 241.98 8.10953C244.2 9.06953 246.17 10.3895 247.81 12.0395C249.46 13.6895 250.78 15.6495 251.74 17.8695C252.69 20.0795 253.18 22.4695 253.18 24.9895C253.18 26.6695 252.96 28.3095 252.53 29.8695C252.1 31.4295 251.48 32.8995 250.69 34.2395C249.89 35.5895 248.92 36.8295 247.81 37.9395C246.7 39.0495 245.45 40.0195 244.09 40.8095C242.74 41.6095 241.26 42.2295 239.71 42.6595C238.18 43.0995 236.54 43.3195 234.86 43.3195Z" fill="white"/>
<path d="M298.43 0.429688H272.29C270.77 0.429688 269.98 1.20969 269.65 1.67969C269.22 2.28969 268.97 2.92969 268.93 3.59969V3.65969V46.2797C268.93 47.1897 269.27 47.9997 269.9 48.6397C270.54 49.2797 271.36 49.6097 272.3 49.6097C273.19 49.6097 274 49.2897 274.63 48.6797C275.28 48.0497 275.63 47.2197 275.63 46.2797V30.3797H289.91C290.84 30.3797 291.67 30.0397 292.3 29.4097C292.94 28.7697 293.27 27.9697 293.27 27.0897C293.27 26.2097 292.95 25.3997 292.35 24.7497C291.71 24.0597 290.86 23.6897 289.91 23.6897H275.63V7.11969H298.44C299.35 7.11969 300.16 6.78969 300.78 6.16969C301.4 5.54969 301.73 4.70969 301.73 3.75969C301.73 2.81969 301.39 1.98969 300.73 1.35969C300.09 0.749688 299.3 0.429688 298.43 0.429688Z" fill="white"/>
<path d="M350.04 1.46969C349.41 0.789687 348.57 0.429688 347.61 0.429688H313.42C312.51 0.429688 311.7 0.769687 311.06 1.39969C310.42 2.03969 310.09 2.84969 310.09 3.75969C310.09 4.65969 310.42 5.46969 311.04 6.10969C311.68 6.76969 312.5 7.12969 313.42 7.12969H327.15V46.2497C327.15 47.1497 327.48 47.9597 328.1 48.5997C328.74 49.2597 329.58 49.6197 330.52 49.6197C331.48 49.6197 332.32 49.2597 332.94 48.5797C333.53 47.9397 333.85 47.1397 333.85 46.2497V7.11969H347.62C348.55 7.11969 349.37 6.78969 350 6.16969C350.62 5.54969 350.95 4.71969 350.95 3.78969C350.95 2.90969 350.64 2.10969 350.04 1.46969Z" fill="white"/>
</g>
<defs>
<clipPath id="clip0_1994_2482">
<rect width="351" height="51" fill="white"/>
</clipPath>
</defs>
</svg>
