<svg width="538" height="100" viewBox="0 0 538 100" fill="none" xmlns="http://www.w3.org/2000/svg">
<g clip-path="url(#clip0_1994_2469)">
<path d="M229.41 37.2798C228.34 35.4598 227.04 33.7798 225.53 32.2698C224.03 30.7698 222.33 29.4598 220.5 28.3898C218.67 27.3198 216.68 26.4798 214.59 25.8998C212.49 25.3098 210.28 25.0098 208.01 25.0098H190.94C190.06 25.0098 189.26 25.3198 188.62 25.9098C187.94 26.5398 187.58 27.3798 187.58 28.3398V71.6798C187.58 72.5998 187.93 73.4298 188.59 74.0598C189.23 74.6798 190.05 75.0098 190.94 75.0098H208.01C211.4 75.0098 214.63 74.3598 217.64 73.0898C220.63 71.8198 223.27 70.0598 225.5 67.8498C227.73 65.6498 229.52 63.0298 230.81 60.0798C232.12 57.1098 232.78 53.0798 232.78 49.7098C232.78 47.4698 232.48 45.2698 231.89 43.1698C231.32 41.0898 230.48 39.1098 229.41 37.2798ZM208.02 68.3198H194.28V31.7098H208.06C209.82 31.7098 211.5 31.9498 213.06 32.4198C214.63 32.8898 216.11 33.5498 217.44 34.3798C218.77 35.2098 219.98 36.1998 221.04 37.3398C222.11 38.4898 223.04 39.7498 223.8 41.0898C224.55 42.4198 225.14 43.8498 225.54 45.3198C225.94 46.7898 226.14 48.2798 226.14 49.7498C226.14 51.9698 225.69 54.9898 224.82 57.1098C223.94 59.2398 222.68 61.1598 221.09 62.8198C219.5 64.4698 217.57 65.8198 215.34 66.8198C213.13 67.8198 210.67 68.3198 208.02 68.3198Z" fill="white"/>
<path d="M261.53 27.4297C260.99 26.1397 259.88 25.4097 258.48 25.4097C257.04 25.4097 255.91 26.1497 255.37 27.4197L237.08 69.8797C236.7 70.7097 236.66 71.5897 236.96 72.4197C237.27 73.2597 237.87 73.9097 238.71 74.3097L238.82 74.3597C239.67 74.6897 240.55 74.6897 241.36 74.3697C242.19 74.0297 242.81 73.3997 243.16 72.5797L247.21 63.1597H269.73L273.75 72.6097L273.78 72.6697C274.17 73.4997 274.83 74.1097 275.69 74.4297C276.08 74.5697 276.48 74.6497 276.87 74.6497C277.36 74.6497 277.84 74.5397 278.31 74.3197L278.35 74.2997C279.17 73.8897 279.74 73.2197 280.01 72.3697C280.25 71.5897 280.21 70.7597 279.89 69.9797L261.53 27.4297ZM250 56.4497L258.48 36.6897L266.91 56.4497H250Z" fill="white"/>
<path d="M320.89 52.8997C321.96 51.5497 322.8 50.0097 323.39 48.3297C323.98 46.6497 324.27 44.8197 324.27 42.8897C324.27 40.4097 323.79 38.0797 322.83 35.9397C321.88 33.8297 320.58 31.9597 318.96 30.4097C317.34 28.8597 315.42 27.6197 313.24 26.7497C311.06 25.8697 308.72 25.4297 306.26 25.4297H293.12C292.24 25.4297 291.44 25.7397 290.8 26.3297C290.12 26.9597 289.76 27.7997 289.76 28.7597V71.2797C289.76 72.1997 290.11 73.0297 290.77 73.6597C291.41 74.2797 292.23 74.6097 293.12 74.6097C294.03 74.6097 294.84 74.2697 295.48 73.6397C296.12 72.9997 296.45 72.1897 296.45 71.2797V59.6197H306.15C306.59 59.6197 307.03 59.6097 307.44 59.5797C307.52 59.5797 307.6 59.5697 307.68 59.5597L318.26 73.4597L318.35 73.5497C318.93 74.1297 319.65 74.4697 320.43 74.5497C321.25 74.6297 322.05 74.3897 322.74 73.8497C323.5 73.2897 323.95 72.4797 324.05 71.5097C324.15 70.5597 323.84 69.6497 323.17 68.9297L314.75 57.7497C315.58 57.3497 316.38 56.8997 317.13 56.3797C318.57 55.4097 319.83 54.2397 320.89 52.8997ZM314.45 50.0097C313.46 50.9197 312.26 51.6397 310.87 52.1597C309.47 52.6897 307.89 52.9497 306.2 52.9497H296.46V32.1197H306.34C307.99 32.1197 309.51 32.4097 310.87 32.9897C312.24 33.5697 313.44 34.3697 314.43 35.3697C315.42 36.3597 316.2 37.5197 316.75 38.8197C317.29 40.1097 317.57 41.4797 317.57 42.8897C317.57 44.2897 317.29 45.6097 316.75 46.8197C316.21 48.0397 315.43 49.1097 314.45 50.0097Z" fill="white"/>
<path d="M391.09 25.7098L391.01 25.6698C390.14 25.3098 389.25 25.3198 388.43 25.6898C387.67 26.0298 387.08 26.6298 386.7 27.4198L371.34 62.9598L365.11 48.5498L373.09 30.0898C373.48 29.2398 373.51 28.3398 373.17 27.4998C372.85 26.6998 372.24 26.0798 371.43 25.6998L371.35 25.6598C370.49 25.3098 369.6 25.3098 368.77 25.6798C368.01 26.0098 367.4 26.5898 367.03 27.3398L367.01 27.3798L351.59 62.9498L336.32 27.4598L336.29 27.3998C335.91 26.5998 335.31 25.9998 334.53 25.6598C333.7 25.2998 332.81 25.2898 331.95 25.6498L331.87 25.6898C331.08 26.0598 330.48 26.6598 330.14 27.4098C329.76 28.2398 329.78 29.1798 330.17 30.0398L348.5 72.5398L348.51 72.5698C348.74 73.0898 349.07 73.5198 349.48 73.8498C349.88 74.1798 350.35 74.3998 350.85 74.5098C351.12 74.5798 351.39 74.6098 351.66 74.6098C352.13 74.6098 352.59 74.5098 353.04 74.3198C353.83 73.9798 354.43 73.3598 354.76 72.5398L361.48 56.9598L368.18 72.5098C368.44 73.1698 368.88 73.6998 369.45 74.0498C369.93 74.3498 370.45 74.5198 371 74.5798C371.71 74.6698 372.42 74.5198 373.06 74.1498C373.7 73.7798 374.2 73.2198 374.49 72.5398L392.82 30.0398C393.22 29.1598 393.22 28.2098 392.81 27.3598C392.46 26.6498 391.87 26.0698 391.09 25.7098Z" fill="white"/>
<path d="M443.47 37.3995C442.4 35.5495 441.08 33.8395 439.55 32.3195C438.02 30.8095 436.32 29.4995 434.49 28.4295C432.66 27.3595 430.65 26.5195 428.53 25.9195C426.4 25.3195 424.15 25.0195 421.86 25.0195C418.4 25.0195 415.11 25.6795 412.09 26.9795C409.08 28.2795 406.41 30.0795 404.17 32.3295C401.93 34.5795 400.14 37.2495 398.86 40.2595C397.57 43.2795 396.92 46.5595 396.92 49.9895C396.92 53.4195 397.57 56.6995 398.86 59.7395C400.14 62.7595 401.93 65.4395 404.17 67.6995C406.41 69.9495 409.08 71.7595 412.09 73.0495C415.12 74.3495 418.4 75.0095 421.86 75.0095C424.15 75.0095 426.39 74.7095 428.53 74.1095C430.65 73.5095 432.65 72.6695 434.49 71.5995C436.33 70.5295 438.03 69.2095 439.56 67.6895C441.09 66.1595 442.4 64.4595 443.47 62.6195C444.54 60.7895 445.38 58.7795 445.98 56.6595C446.58 54.5295 446.88 52.2795 446.88 49.9895C446.88 47.6995 446.58 45.4595 445.98 43.3395C445.38 41.2395 444.53 39.2395 443.47 37.3995ZM421.86 68.3195C420.18 68.3195 418.53 68.0995 416.98 67.6695C415.42 67.2395 413.95 66.6195 412.61 65.8295C411.27 65.0295 410.03 64.0695 408.93 62.9595C407.83 61.8495 406.88 60.6095 406.09 59.2595C405.31 57.9195 404.69 56.4495 404.26 54.8795C403.83 53.3195 403.61 51.6795 403.61 49.9995C403.61 47.4795 404.09 45.0795 405.03 42.8695C405.98 40.6495 407.29 38.6795 408.93 37.0395C410.56 35.3995 412.52 34.0795 414.74 33.1095C416.95 32.1595 419.34 31.6695 421.86 31.6695C424.38 31.6695 426.77 32.1495 428.98 33.1095C431.2 34.0695 433.17 35.3895 434.81 37.0395C436.46 38.6895 437.78 40.6495 438.74 42.8695C439.69 45.0795 440.18 47.4695 440.18 49.9895C440.18 51.6695 439.96 53.3095 439.53 54.8695C439.1 56.4295 438.48 57.8995 437.69 59.2395C436.89 60.5895 435.92 61.8295 434.81 62.9395C433.7 64.0495 432.45 65.0195 431.09 65.8095C429.74 66.6095 428.26 67.2295 426.71 67.6595C425.18 68.0995 423.54 68.3195 421.86 68.3195Z" fill="white"/>
<path d="M485.43 25.4297H459.29C457.77 25.4297 456.98 26.2097 456.65 26.6797C456.22 27.2897 455.97 27.9297 455.93 28.5997V28.6597V71.2797C455.93 72.1897 456.27 72.9997 456.9 73.6397C457.54 74.2797 458.36 74.6097 459.3 74.6097C460.19 74.6097 461 74.2897 461.63 73.6797C462.28 73.0497 462.63 72.2197 462.63 71.2797V55.3797H476.91C477.84 55.3797 478.67 55.0397 479.3 54.4097C479.94 53.7697 480.27 52.9697 480.27 52.0897C480.27 51.2097 479.95 50.3997 479.35 49.7497C478.71 49.0597 477.86 48.6897 476.91 48.6897H462.63V32.1197H485.44C486.35 32.1197 487.16 31.7897 487.78 31.1697C488.4 30.5497 488.73 29.7097 488.73 28.7597C488.73 27.8197 488.39 26.9897 487.73 26.3597C487.09 25.7497 486.3 25.4297 485.43 25.4297Z" fill="white"/>
<path d="M537.04 26.4697C536.41 25.7897 535.57 25.4297 534.61 25.4297H500.42C499.51 25.4297 498.7 25.7697 498.06 26.3997C497.42 27.0397 497.09 27.8497 497.09 28.7597C497.09 29.6597 497.42 30.4697 498.04 31.1097C498.68 31.7697 499.5 32.1297 500.42 32.1297H514.15V71.2497C514.15 72.1497 514.48 72.9597 515.1 73.5997C515.74 74.2597 516.58 74.6197 517.52 74.6197C518.48 74.6197 519.32 74.2597 519.94 73.5797C520.53 72.9397 520.85 72.1397 520.85 71.2497V32.1197H534.62C535.55 32.1197 536.37 31.7897 537 31.1697C537.62 30.5497 537.95 29.7197 537.95 28.7897C537.95 27.9097 537.64 27.1097 537.04 26.4697Z" fill="white"/>
<path d="M112.752 0C89.228 0 66.3952 18.5219 45.9759 36.0736C45.4852 36.5037 27.4794 52.5153 19.6482 57.4957C13.3992 61.6662 10.0344 62.5863 8.29189 62.5863C3.71533 62.5863 0 66.2966 0 70.8671C0 75.4375 3.71533 79.1479 8.29189 79.1479C18.6968 79.1479 29.6225 71.5872 42.4909 60.8661C47.3279 56.8457 52.1548 52.6453 55.2292 49.965C55.3894 49.825 55.5597 49.685 55.7199 49.5349C57.2221 48.2248 58.2235 47.3547 58.4638 47.1747C76.2293 31.9632 95.6872 16.5517 112.742 16.5517C131.208 16.5517 146.23 31.5532 146.23 49.995C146.23 68.4368 131.208 83.4383 112.742 83.4383C95.8475 83.4383 77.5612 69.0469 59.8458 53.9054L59.1849 54.4855C56.4009 56.9157 51.8343 60.8861 47.1176 64.8165C67.5068 82.3182 89.3181 100 112.752 100C140.361 100 162.824 77.5678 162.824 49.995C162.824 22.4222 140.361 0 112.752 0Z" fill="white"/>
<path d="M8.30192 37.4237C10.1846 37.4237 13.96 38.4838 21.2204 43.5643C22.3821 44.3744 23.5838 45.2645 24.8156 46.1946C29.1618 42.7043 33.9988 38.5938 37.8843 35.2135C27.2891 26.9027 17.2047 20.8721 8.31193 20.8721C3.73536 20.8721 0.0200398 24.5824 0.0200398 29.1529C0.0100254 33.7234 3.71534 37.4237 8.30192 37.4237Z" fill="white"/>
</g>
<defs>
<clipPath id="clip0_1994_2469">
<rect width="537.95" height="100" fill="white"/>
</clipPath>
</defs>
</svg>
