<svg width="277" height="171" viewBox="0 0 277 171" fill="none" xmlns="http://www.w3.org/2000/svg">
<g clip-path="url(#clip0_1994_2465)">
<path d="M191.678 -1C151.688 -1 112.872 30.4872 78.1591 60.3251C77.3249 61.0562 46.715 88.2759 33.4019 96.7428C22.7787 103.832 17.0585 105.397 14.0962 105.397C6.31606 105.397 0 111.704 0 119.474C0 127.244 6.31606 133.551 14.0962 133.551C31.7846 133.551 50.3582 120.698 72.2346 102.472C80.4574 95.6376 88.6632 88.4969 93.8897 83.9405C94.162 83.7025 94.4515 83.4644 94.7239 83.2094C97.2775 80.9822 98.9799 79.503 99.3885 79.197C129.59 53.3374 162.668 27.1378 191.661 27.1378C223.054 27.1378 248.591 52.6404 248.591 83.9915C248.591 115.343 223.054 140.845 191.661 140.845C162.941 140.845 131.854 116.38 101.738 90.6392L100.614 91.6253C95.8815 95.7567 88.1184 102.506 80.0999 109.188C114.762 138.941 151.841 169 191.678 169C238.614 169 276.8 130.865 276.8 83.9915C276.8 37.1178 238.614 -1 191.678 -1Z" fill="white"/>
<path d="M14.1132 62.6202C17.3138 62.6202 23.7319 64.4224 36.0746 73.0593C38.0495 74.4364 40.0924 75.9496 42.1864 77.5307C49.575 71.5971 57.7978 64.6094 64.4033 58.8629C46.3914 44.7345 29.2479 34.4824 14.1302 34.4824C6.35002 34.4824 0.03397 40.7901 0.03397 48.5598C0.0169456 56.3296 6.31598 62.6202 14.1132 62.6202Z" fill="white"/>
</g>
<defs>
<clipPath id="clip0_1994_2465">
<rect width="276.52" height="170.11" fill="white"/>
</clipPath>
</defs>
</svg>
