<svg width="351" height="175" viewBox="0 0 351 175" fill="none" xmlns="http://www.w3.org/2000/svg">
<g clip-path="url(#clip0_1994_2452)">
<path d="M41.83 137.27C40.76 135.45 39.46 133.77 37.95 132.26C36.45 130.76 34.75 129.45 32.92 128.38C31.09 127.31 29.1 126.47 27.01 125.89C24.91 125.3 22.7 125 20.43 125H3.37C2.49 125 1.69 125.31 1.05 125.9C0.36 126.53 0 127.37 0 128.33V171.67C0 172.59 0.35 173.42 1.01 174.05C1.65 174.67 2.47 175 3.36 175H20.43C23.82 175 27.05 174.35 30.06 173.08C33.05 171.81 35.69 170.05 37.92 167.84C40.15 165.64 41.94 163.02 43.23 160.07C44.54 157.1 45.2 153.07 45.2 149.7C45.2 147.46 44.9 145.26 44.31 143.16C43.73 141.07 42.9 139.09 41.83 137.27ZM20.44 168.3H6.7V131.7H20.48C22.24 131.7 23.92 131.94 25.48 132.41C27.05 132.88 28.53 133.54 29.86 134.37C31.19 135.2 32.4 136.19 33.46 137.33C34.53 138.48 35.46 139.74 36.22 141.08C36.97 142.41 37.56 143.84 37.96 145.31C38.36 146.78 38.56 148.27 38.56 149.74C38.56 151.96 38.11 154.98 37.24 157.1C36.36 159.23 35.1 161.15 33.51 162.81C31.92 164.46 29.99 165.81 27.76 166.81C25.55 167.8 23.09 168.3 20.44 168.3Z" fill="white"/>
<path d="M73.9499 127.41C73.4099 126.12 72.2999 125.39 70.8999 125.39C69.4599 125.39 68.3299 126.13 67.7899 127.4L49.4999 169.86C49.1199 170.69 49.0799 171.57 49.3799 172.4C49.6899 173.24 50.2899 173.89 51.1299 174.29L51.2399 174.34C52.0899 174.67 52.9699 174.67 53.7799 174.35C54.6099 174.01 55.2299 173.38 55.5799 172.56L59.6299 163.14H82.1499L86.1699 172.59L86.1999 172.65C86.5899 173.48 87.2499 174.09 88.1099 174.41C88.4999 174.55 88.8999 174.63 89.2899 174.63C89.7799 174.63 90.2599 174.52 90.7299 174.3L90.7699 174.28C91.5899 173.87 92.1599 173.2 92.4299 172.35C92.6699 171.57 92.6299 170.74 92.3099 169.96L73.9499 127.41ZM62.4199 156.44L70.8999 136.68L79.3299 156.44H62.4199Z" fill="white"/>
<path d="M133.31 152.88C134.38 151.53 135.22 149.99 135.81 148.31C136.4 146.63 136.69 144.8 136.69 142.87C136.69 140.39 136.21 138.06 135.25 135.92C134.3 133.81 133 131.94 131.38 130.39C129.76 128.84 127.84 127.6 125.66 126.73C123.48 125.85 121.14 125.41 118.68 125.41H105.54C104.66 125.41 103.86 125.72 103.22 126.31C102.54 126.94 102.18 127.78 102.18 128.74V171.26C102.18 172.18 102.53 173.01 103.19 173.64C103.83 174.26 104.65 174.59 105.54 174.59C106.45 174.59 107.26 174.25 107.9 173.62C108.54 172.98 108.87 172.17 108.87 171.26V159.6H118.57C119.01 159.6 119.45 159.59 119.86 159.56C119.94 159.56 120.02 159.55 120.1 159.54L130.68 173.44L130.77 173.53C131.35 174.11 132.07 174.45 132.85 174.53C133.67 174.61 134.47 174.37 135.16 173.83C135.92 173.27 136.37 172.46 136.47 171.49C136.57 170.54 136.26 169.63 135.59 168.91L127.17 157.73C128 157.33 128.8 156.88 129.55 156.36C130.98 155.39 132.25 154.22 133.31 152.88ZM126.87 149.99C125.88 150.9 124.68 151.62 123.29 152.14C121.89 152.67 120.31 152.93 118.62 152.93H108.88V132.1H118.76C120.41 132.1 121.93 132.39 123.29 132.97C124.66 133.55 125.86 134.35 126.85 135.35C127.84 136.34 128.62 137.5 129.17 138.8C129.71 140.09 129.99 141.46 129.99 142.87C129.99 144.27 129.71 145.59 129.17 146.8C128.62 148.02 127.85 149.09 126.87 149.99Z" fill="white"/>
<path d="M203.51 125.69L203.43 125.65C202.57 125.29 201.67 125.3 200.85 125.67C200.09 126.01 199.5 126.61 199.12 127.4L183.76 162.94L177.53 148.53L185.51 130.07C185.9 129.22 185.93 128.32 185.59 127.48C185.27 126.68 184.66 126.06 183.85 125.68L183.77 125.64C182.91 125.29 182.02 125.29 181.19 125.66C180.43 125.99 179.82 126.57 179.45 127.32L179.43 127.36L164.01 162.93L148.74 127.44L148.71 127.38C148.33 126.58 147.73 125.98 146.95 125.64C146.12 125.28 145.23 125.27 144.37 125.63L144.29 125.67C143.5 126.04 142.9 126.64 142.56 127.39C142.18 128.22 142.2 129.16 142.59 130.02L160.92 172.52L160.93 172.55C161.16 173.07 161.49 173.5 161.9 173.83C162.3 174.16 162.77 174.38 163.27 174.49C163.54 174.56 163.81 174.59 164.08 174.59C164.55 174.59 165.01 174.49 165.46 174.3C166.25 173.96 166.85 173.34 167.18 172.52L173.9 156.94L180.6 172.49C180.86 173.15 181.3 173.68 181.87 174.03C182.35 174.33 182.87 174.5 183.42 174.56C184.13 174.65 184.84 174.5 185.48 174.13C186.12 173.76 186.62 173.2 186.91 172.52L205.24 130.02C205.64 129.14 205.64 128.19 205.23 127.34C204.88 126.63 204.28 126.05 203.51 125.69Z" fill="white"/>
<path d="M255.88 137.38C254.81 135.53 253.49 133.82 251.96 132.3C250.43 130.79 248.73 129.48 246.9 128.41C245.07 127.34 243.06 126.5 240.94 125.9C238.81 125.3 236.56 125 234.27 125C230.81 125 227.52 125.66 224.5 126.96C221.49 128.26 218.82 130.06 216.58 132.31C214.34 134.56 212.55 137.23 211.27 140.24C209.98 143.26 209.33 146.54 209.33 149.97C209.33 153.4 209.98 156.68 211.27 159.72C212.55 162.74 214.34 165.42 216.58 167.68C218.82 169.93 221.49 171.74 224.5 173.03C227.53 174.33 230.81 174.99 234.27 174.99C236.56 174.99 238.8 174.69 240.94 174.09C243.06 173.49 245.06 172.65 246.9 171.58C248.74 170.51 250.44 169.19 251.97 167.67C253.5 166.14 254.81 164.44 255.88 162.6C256.95 160.77 257.79 158.76 258.39 156.64C258.99 154.51 259.29 152.26 259.29 149.97C259.29 147.68 258.99 145.44 258.39 143.32C257.79 141.23 256.95 139.22 255.88 137.38ZM234.28 168.3C232.6 168.3 230.95 168.08 229.4 167.65C227.84 167.22 226.37 166.6 225.03 165.81C223.69 165.01 222.45 164.05 221.35 162.94C220.25 161.83 219.3 160.59 218.51 159.24C217.73 157.9 217.11 156.43 216.68 154.86C216.25 153.3 216.03 151.66 216.03 149.98C216.03 147.46 216.51 145.06 217.45 142.85C218.4 140.63 219.71 138.66 221.35 137.02C222.98 135.38 224.94 134.06 227.16 133.09C229.37 132.14 231.76 131.65 234.28 131.65C236.8 131.65 239.19 132.13 241.4 133.09C243.62 134.05 245.59 135.37 247.23 137.02C248.88 138.67 250.2 140.63 251.16 142.85C252.11 145.06 252.6 147.45 252.6 149.97C252.6 151.65 252.38 153.29 251.95 154.85C251.52 156.41 250.9 157.88 250.11 159.22C249.31 160.57 248.34 161.81 247.23 162.92C246.12 164.03 244.87 165 243.51 165.79C242.16 166.59 240.68 167.21 239.13 167.64C237.59 168.09 235.96 168.3 234.28 168.3Z" fill="white"/>
<path d="M297.85 125.41H271.71C270.19 125.41 269.4 126.19 269.07 126.66C268.64 127.27 268.39 127.91 268.35 128.58V128.64V171.26C268.35 172.17 268.69 172.98 269.32 173.62C269.96 174.26 270.78 174.59 271.72 174.59C272.61 174.59 273.42 174.27 274.05 173.66C274.7 173.03 275.05 172.2 275.05 171.26V155.36H289.33C290.26 155.36 291.09 155.02 291.72 154.39C292.36 153.75 292.69 152.95 292.69 152.07C292.69 151.19 292.37 150.38 291.77 149.73C291.13 149.04 290.28 148.67 289.33 148.67H275.05V132.11H297.86C298.77 132.11 299.58 131.78 300.2 131.16C300.82 130.54 301.15 129.7 301.15 128.75C301.15 127.81 300.81 126.98 300.15 126.35C299.51 125.73 298.72 125.41 297.85 125.41Z" fill="white"/>
<path d="M349.46 126.45C348.83 125.77 347.99 125.41 347.03 125.41H312.84C311.93 125.41 311.12 125.75 310.48 126.38C309.84 127.02 309.51 127.83 309.51 128.74C309.51 129.64 309.84 130.45 310.46 131.09C311.1 131.75 311.92 132.11 312.84 132.11H326.57V171.23C326.57 172.13 326.9 172.94 327.52 173.58C328.16 174.24 329 174.6 329.94 174.6C330.9 174.6 331.74 174.24 332.36 173.56C332.95 172.92 333.27 172.12 333.27 171.23V132.11H347.04C347.97 132.11 348.79 131.78 349.42 131.16C350.04 130.54 350.37 129.71 350.37 128.78C350.37 127.9 350.05 127.09 349.46 126.45Z" fill="white"/>
<path d="M205.752 0C182.228 0 159.395 18.5219 138.976 36.0736C138.485 36.5037 120.479 52.5153 112.648 57.4957C106.399 61.6662 103.034 62.5863 101.292 62.5863C96.7153 62.5863 93 66.2966 93 70.8671C93 75.4375 96.7153 79.1479 101.292 79.1479C111.697 79.1479 122.622 71.5872 135.491 60.8661C140.328 56.8457 145.155 52.6453 148.229 49.965C148.389 49.825 148.56 49.685 148.72 49.5349C150.222 48.2248 151.223 47.3547 151.464 47.1747C169.229 31.9632 188.687 16.5517 205.742 16.5517C224.208 16.5517 239.23 31.5532 239.23 49.995C239.23 68.4368 224.208 83.4383 205.742 83.4383C188.847 83.4383 170.561 69.0469 152.846 53.9054L152.185 54.4855C149.401 56.9157 144.834 60.8861 140.118 64.8165C160.507 82.3182 182.318 100 205.752 100C233.361 100 255.824 77.5678 255.824 49.995C255.824 22.4222 233.361 0 205.752 0Z" fill="white"/>
<path d="M101.302 37.4237C103.185 37.4237 106.96 38.4838 114.22 43.5643C115.382 44.3744 116.584 45.2645 117.816 46.1946C122.162 42.7043 126.999 38.5938 130.884 35.2135C120.289 26.9027 110.205 20.8721 101.312 20.8721C96.7354 20.8721 93.02 24.5824 93.02 29.1529C93.01 33.7234 96.7153 37.4237 101.302 37.4237Z" fill="white"/>
</g>
<defs>
<clipPath id="clip0_1994_2452">
<rect width="350.37" height="175" fill="white"/>
</clipPath>
</defs>
</svg>
